HIERARCHY
ROOT Root
{
  OFFSET 0.0 0.0 0.0
  CHANNELS 6 Xposition Yposition Zposition Zrotation Yrotation Xrotation
  JOINT Hips
  {
    OFFSET 0.0 100.0 0.0
    CHANNELS 6 Xposition Yposition Zposition Zrotation Yrotation Xrotation
    JOINT Spine1
    {
      OFFSET -0.013727 5.003763 -0.053727
      CHANNELS 3 Zrotation Yrotation Xrotation
      JOINT Spine2
      {
        OFFSET -0.0 7.125301 -0.029825
        CHANNELS 3 Zrotation Yrotation Xrotation
        JOINT Chest
        {
          OFFSET -1e-06 7.550063 -0.815971
          CHANNELS 3 Zrotation Yrotation Xrotation
          JOINT Neck1
          {
            OFFSET -0.181677 26.311295 -0.553348
            CHANNELS 3 Zrotation Yrotation Xrotation
            JOINT Neck2
            {
              OFFSET -3e-06 7.709397 2.302585
              CHANNELS 3 Zrotation Yrotation Xrotation
              JOINT Head
              {
                OFFSET -5e-06 6.128916 1.953709
                CHANNELS 3 Zrotation Yrotation Xrotation
                JOINT HeadEnd
                {
                  OFFSET 0.003598 16.065403 -1.835379
                  CHANNELS 3 Zrotation Yrotation Xrotation
                }
                JOINT Jaw
                {
                  OFFSET 0.002637 0.475592 3.094941
                  CHANNELS 3 Zrotation Yrotation Xrotation
                }
                JOINT LeftEye
                {
                  OFFSET 3.206381 5.380205 7.586883
                  CHANNELS 3 Zrotation Yrotation Xrotation
                }
                JOINT RightEye
                {
                  OFFSET -3.22244 5.361869 7.558234
                  CHANNELS 3 Zrotation Yrotation Xrotation
                }
              }
            }
          }
          JOINT LeftShoulder
          {
            OFFSET 1.621652 23.237164 5.113413
            CHANNELS 3 Zrotation Yrotation Xrotation
            JOINT LeftArm
            {
              OFFSET 14.919846 2e-06 -5.502326
              CHANNELS 3 Zrotation Yrotation Xrotation
              JOINT LeftForeArm
              {
                OFFSET 28.739307 0.0 -0.002588
                CHANNELS 3 Zrotation Yrotation Xrotation
                JOINT LeftHand
                {
                  OFFSET 27.093981 -1e-06 0.002609
                  CHANNELS 3 Zrotation Yrotation Xrotation
                  JOINT LeftHandThumb1
                  {
                    OFFSET 2.276482 -1.392045 3.191413
                    CHANNELS 3 Zrotation Yrotation Xrotation
                    JOINT LeftHandThumb2
                    {
                      OFFSET 4.012836 -1.828127 1.641654
                      CHANNELS 3 Zrotation Yrotation Xrotation
                      JOINT LeftHandThumb3
                      {
                        OFFSET 2.798515 0.0 -3e-06
                        CHANNELS 3 Zrotation Yrotation Xrotation
                        JOINT LeftHandThumbEnd
                        {
                          OFFSET 3.180793 -4e-06 4e-06
                          CHANNELS 3 Zrotation Yrotation Xrotation
                        }
                      }
                    }
                  }
                  JOINT LeftHandIndex1
                  {
                    OFFSET 3.247555 -0.531998 2.296169
                    CHANNELS 3 Zrotation Yrotation Xrotation
                    JOINT LeftHandIndex2
                    {
                      OFFSET 6.364578 0.01206 0.1786
                      CHANNELS 3 Zrotation Yrotation Xrotation
                      JOINT LeftHandIndex3
                      {
                        OFFSET 3.662364 0.0 0.0
                        CHANNELS 3 Zrotation Yrotation Xrotation
                        JOINT LeftHandIndex4
                        {
                          OFFSET 2.329242 4e-06 4e-06
                          CHANNELS 3 Zrotation Yrotation Xrotation
                          JOINT LeftHandIndexEnd
                          {
                            OFFSET 2.759615 -0.180537 -0.113024
                            CHANNELS 3 Zrotation Yrotation Xrotation
                          }
                        }
                      }
                    }
                  }
                  JOINT LeftHandMiddle1
                  {
                    OFFSET 3.163495 0.240981 1.000332
                    CHANNELS 3 Zrotation Yrotation Xrotation
                    JOINT LeftHandMiddle2
                    {
                      OFFSET 6.19078 -0.259278 -1.002548
                      CHANNELS 3 Zrotation Yrotation Xrotation
                      JOINT LeftHandMiddle3
                      {
                        OFFSET 4.35652 -4e-06 -1e-06
                        CHANNELS 3 Zrotation Yrotation Xrotation
                        JOINT LeftHandMiddle4
                        {
                          OFFSET 2.996877 -8e-06 0.0
                          CHANNELS 3 Zrotation Yrotation Xrotation
                          JOINT LeftHandMiddleEnd
                          {
                            OFFSET 2.304287 -0.294569 -0.031741
                            CHANNELS 3 Zrotation Yrotation Xrotation
                          }
                        }
                      }
                    }
                  }
                  JOINT LeftHandRing1
                  {
                    OFFSET 2.882643 -0.053652 -0.322543
                    CHANNELS 3 Zrotation Yrotation Xrotation
                    JOINT LeftHandRing2
                    {
                      OFFSET 5.854541 -0.486202 -1.373841
                      CHANNELS 3 Zrotation Yrotation Xrotation
                      JOINT LeftHandRing3
                      {
                        OFFSET 4.350578 0.0 3e-06
                        CHANNELS 3 Zrotation Yrotation Xrotation
                        JOINT LeftHandRing4
                        {
                          OFFSET 2.651321 7e-06 2e-06
                          CHANNELS 3 Zrotation Yrotation Xrotation
                          JOINT LeftHandRingEnd
                          {
                            OFFSET 1.936105 0.077687 -7.1e-05
                            CHANNELS 3 Zrotation Yrotation Xrotation
                          }
                        }
                      }
                    }
                  }
                  JOINT LeftHandPinky1
                  {
                    OFFSET 2.8655 -0.310005 -1.600378
                    CHANNELS 3 Zrotation Yrotation Xrotation
                    JOINT LeftHandPinky2
                    {
                      OFFSET 5.087849 -1.331141 -1.77123
                      CHANNELS 3 Zrotation Yrotation Xrotation
                      JOINT LeftHandPinky3
                      {
                        OFFSET 3.070974 4e-06 0.0
                        CHANNELS 3 Zrotation Yrotation Xrotation
                        JOINT LeftHandPinky4
                        {
                          OFFSET 1.549672 0.0 1e-06
                          CHANNELS 3 Zrotation Yrotation Xrotation
                          JOINT LeftHandPinkyEnd
                          {
                            OFFSET 1.944893 -0.157802 0.057219
                            CHANNELS 3 Zrotation Yrotation Xrotation
                          }
                        }
                      }
                    }
                  }
                }
              }
            }
          }
          JOINT RightShoulder
          {
            OFFSET -1.380118 23.180309 5.214158
            CHANNELS 3 Zrotation Yrotation Xrotation
            JOINT RightArm
            {
              OFFSET -15.037196 1.2e-05 -5.545604
              CHANNELS 3 Zrotation Yrotation Xrotation
              JOINT RightForeArm
              {
                OFFSET -28.736639 2e-06 -0.002597
                CHANNELS 3 Zrotation Yrotation Xrotation
                JOINT RightHand
                {
                  OFFSET -27.133619 -0.0 0.002613
                  CHANNELS 3 Zrotation Yrotation Xrotation
                  JOINT RightHandThumb1
                  {
                    OFFSET -2.274032 -1.383988 3.163127
                    CHANNELS 3 Zrotation Yrotation Xrotation
                    JOINT RightHandThumb2
                    {
                      OFFSET -4.011429 -1.827466 1.640914
                      CHANNELS 3 Zrotation Yrotation Xrotation
                      JOINT RightHandThumb3
                      {
                        OFFSET -2.794935 -4e-06 -3e-06
                        CHANNELS 3 Zrotation Yrotation Xrotation
                        JOINT RightHandThumbEnd
                        {
                          OFFSET -3.183852 4e-06 1e-06
                          CHANNELS 3 Zrotation Yrotation Xrotation
                        }
                      }
                    }
                  }
                  JOINT RightHandIndex1
                  {
                    OFFSET -3.253266 -0.520057 2.282866
                    CHANNELS 3 Zrotation Yrotation Xrotation
                    JOINT RightHandIndex2
                    {
                      OFFSET -6.341917 0.012471 0.178266
                      CHANNELS 3 Zrotation Yrotation Xrotation
                      JOINT RightHandIndex3
                      {
                        OFFSET -3.654871 -8e-06 -0.0
                        CHANNELS 3 Zrotation Yrotation Xrotation
                        JOINT RightHandIndex4
                        {
                          OFFSET -2.327586 0.0 1e-06
                          CHANNELS 3 Zrotation Yrotation Xrotation
                          JOINT RightHandIndexEnd
                          {
                            OFFSET -2.76179 -0.180656 -0.113078
                            CHANNELS 3 Zrotation Yrotation Xrotation
                          }
                        }
                      }
                    }
                  }
                  JOINT RightHandMiddle1
                  {
                    OFFSET -3.168106 0.246593 1.00103
                    CHANNELS 3 Zrotation Yrotation Xrotation
                    JOINT RightHandMiddle2
                    {
                      OFFSET -6.180828 -0.258836 -1.000895
                      CHANNELS 3 Zrotation Yrotation Xrotation
                      JOINT RightHandMiddle3
                      {
                        OFFSET -4.348901 0.0 -0.0
                        CHANNELS 3 Zrotation Yrotation Xrotation
                        JOINT RightHandMiddle4
                        {
                          OFFSET -3.00024 -4e-06 -2e-06
                          CHANNELS 3 Zrotation Yrotation Xrotation
                          JOINT RightHandMiddleEnd
                          {
                            OFFSET -2.30252 -0.29437 -0.031706
                            CHANNELS 3 Zrotation Yrotation Xrotation
                          }
                        }
                      }
                    }
                  }
                  JOINT RightHandRing1
                  {
                    OFFSET -2.88569 -0.067952 -0.308858
                    CHANNELS 3 Zrotation Yrotation Xrotation
                    JOINT RightHandRing2
                    {
                      OFFSET -5.854198 -0.48613 -1.373731
                      CHANNELS 3 Zrotation Yrotation Xrotation
                      JOINT RightHandRing3
                      {
                        OFFSET -4.33881 -4e-06 -0.0
                        CHANNELS 3 Zrotation Yrotation Xrotation
                        JOINT RightHandRing4
                        {
                          OFFSET -2.654903 -4e-06 4e-06
                          CHANNELS 3 Zrotation Yrotation Xrotation
                          JOINT RightHandRingEnd
                          {
                            OFFSET -1.933568 0.077527 -5.2e-05
                            CHANNELS 3 Zrotation Yrotation Xrotation
                          }
                        }
                      }
                    }
                  }
                  JOINT RightHandPinky1
                  {
                    OFFSET -2.866425 -0.342796 -1.584145
                    CHANNELS 3 Zrotation Yrotation Xrotation
                    JOINT RightHandPinky2
                    {
                      OFFSET -5.091371 -1.332055 -1.772385
                      CHANNELS 3 Zrotation Yrotation Xrotation
                      JOINT RightHandPinky3
                      {
                        OFFSET -3.062664 -4e-06 1e-06
                        CHANNELS 3 Zrotation Yrotation Xrotation
                        JOINT RightHandPinky4
                        {
                          OFFSET -1.546529 4e-06 -2e-06
                          CHANNELS 3 Zrotation Yrotation Xrotation
                          JOINT RightHandPinkyEnd
                          {
                            OFFSET -1.945119 -0.157718 0.057211
                            CHANNELS 3 Zrotation Yrotation Xrotation
                          }
                        }
                      }
                    }
                  }
                }
              }
            }
          }
        }
      }
    }
    JOINT LeftLeg
    {
      OFFSET 10.043214 -8.434526 2.595655
      CHANNELS 3 Zrotation Yrotation Xrotation
      JOINT LeftShin
      {
        OFFSET -1e-06 -43.221752 -0.802913
        CHANNELS 3 Zrotation Yrotation Xrotation
        JOINT LeftFoot
        {
          OFFSET 1e-06 -42.155094 -3.481523
          CHANNELS 3 Zrotation Yrotation Xrotation
          JOINT LeftToeBase
          {
            OFFSET 0.0 -5.059472 13.231529
            CHANNELS 3 Zrotation Yrotation Xrotation
            JOINT LeftToeEnd
            {
              OFFSET -0.009607 -1.647619 6.513017
              CHANNELS 3 Zrotation Yrotation Xrotation
            }
          }
        }
      }
    }
    JOINT RightLeg
    {
      OFFSET -10.047278 -8.29526 2.620317
      CHANNELS 3 Zrotation Yrotation Xrotation
      JOINT RightShin
      {
        OFFSET 1e-06 -43.362206 -0.805556
        CHANNELS 3 Zrotation Yrotation Xrotation
        JOINT RightFoot
        {
          OFFSET 2e-06 -42.117393 -3.478398
          CHANNELS 3 Zrotation Yrotation Xrotation
          JOINT RightToeBase
          {
            OFFSET -0.0 -5.079609 13.284196
            CHANNELS 3 Zrotation Yrotation Xrotation
            JOINT RightToeEnd
            {
              OFFSET 0.009532 -1.634378 6.460591
              CHANNELS 3 Zrotation Yrotation Xrotation
            }
          }
        }
      }
    }
  }
}
MOTION
Frames: 4
Frame Time: 0.03333333333333333
0.0 0.0 0.0 0.0 -0.0 0.0 -0.738568 99.594589 1.238631 1.954423 33.141129 -2.251626 1.309362 0.608575 -3.619755 0.168671 3.007353 -6.648502 -0.352318 2.443571 16.401783 -13.405354 10.068405 6.34585 7.074321 24.315126 -1.139303 -6.05521 35.371475 -6.941724 7.7e-05 -2.2e-05 6e-06 0.033381 -0.574944 -0.097227 0.747493 -4.255149 -10.346151 -0.688505 3.129989 -10.349569 -24.662361 -1.195819 13.040416 -52.397686 -4.607394 17.984148 0.180811 -32.970528 -0.086032 1.56825 5.162284 -32.91243 -5.882113 9.8613 0.702591 -10.936885 -0.360576 7.15621 -0.0 8.774838 -3e-06 -15.825873 18.148586 6.318066 -1.844035 2.498507 -2.507281 -10.163611 4.678951 4.62111 -20.976048 -3e-06 -1e-06 -21.226315 2.4517 -3.594006 1e-06 -7e-06 1e-06 -1.362683 2.240801 -0.746323 -21.334938 0.584909 3.008323 -13.821229 -3e-06 -1e-06 -23.887196 -0.249078 -0.839487 -60.477261 2.342842 -1.086621 -0.294025 1.679689 0.833256 -14.218225 0.093216 1.30058 -34.212093 -0.287566 0.967167 -20.033241 0.964534 1.212842 0.0 0.0 -1e-06 -3.440392 0.788233 0.501656 -15.928205 -3.167314 2.99971 -6.338834 -1e-06 -2e-06 -18.123468 3.64819 -4.905676 -3e-06 -1e-06 0.0 13.297796 13.347315 18.094023 62.789009 8.406895 29.76615 -0.711171 34.652454 -0.532537 -3.913387 -3.144629 -24.46907 2.243543 -5.255042 -3.180161 14.282898 -0.826596 6.952506 1e-06 -12.690612 -1e-06 16.128389 -17.729185 2.851709 1.665667 -1.955925 -2.8783 4.727801 -4.170591 4.993926 11.020534 2e-06 -2e-06 12.109057 -3.735719 -2.866786 1e-06 0.0 -1e-06 1.291986 -1.928551 -1.498088 14.800136 0.567469 3.865608 14.242579 -1.34174 -6.660662 19.631975 0.143926 -0.648245 50.309204 -0.671105 -5.954937 0.35303 -1.511151 -0.031938 20.222801 3.684311 2.316633 18.787287 2e-06 -1e-06 10.751635 -0.479868 1.397905 -1e-06 1e-06 -2e-06 3.273808 0.305947 -0.580112 21.486826 11.830382 2.266136 8.16293 0.0 -2e-06 18.399092 -3.798989 -4.940579 3e-06 0.0 -3e-06 3.48517 -3.868026 -3.653235 -0.035024 -0.281698 9.609098 -11.600414 -9.647159 -1.912951 1.617878 -2.069206 2.519969 0.0 -0.0 2e-06 -6.430432 -24.321096 7.937986 0.008858 -0.062351 6.361715 0.01318 -20.0061 -7.903728 -1.456429 0.992229 3.644435 -0.0 -0.0 -1e-06 
0.0 0.0 0.0 0.0 -0.0 0.0 -0.776344 99.597397 1.191011 1.876185 32.833164 -2.335042 1.323385 0.581718 -3.557296 0.180927 2.981423 -6.622147 -0.35968 2.443869 16.401991 -13.279193 10.033223 6.424722 7.001892 24.170132 -1.156004 -5.953164 34.948963 -6.860013 7.7e-05 -2.4e-05 6e-06 0.030467 -0.529249 -0.086258 0.74529 -4.211042 -10.330558 -0.691973 3.177731 -10.335176 -24.66577 -1.208503 13.10965 -52.31776 -4.685223 18.167973 0.216272 -32.819363 -0.104637 1.645132 5.073753 -32.8466 -5.882111 9.861292 0.702593 -10.93688 -0.360573 7.156211 -1e-06 8.774831 -2e-06 -15.807632 18.122335 6.318142 -1.844034 2.498507 -2.507279 -10.163609 4.678948 4.621113 -20.97604 0.0 3e-06 -21.226301 2.451701 -3.594003 1e-06 -6e-06 1e-06 -1.362683 2.240801 -0.746322 -21.33493 0.584914 3.008327 -13.821225 0.0 2e-06 -23.887188 -0.249076 -0.839484 -60.449669 2.317451 -1.074924 -0.294025 1.67969 0.833257 -14.21822 0.093216 1.30058 -34.212082 -0.287561 0.96717 -20.033232 0.964539 1.212844 0.0 1e-06 -1e-06 -3.440391 0.788235 0.501657 -15.9282 -3.167309 2.99971 -6.338831 0.0 1e-06 -18.123459 3.648187 -4.905675 -3e-06 1e-06 -1e-06 13.330435 13.350496 18.170538 62.672592 8.394146 29.765097 -0.726192 34.868847 -0.525705 -4.016884 -3.043303 -24.547445 2.243544 -5.255042 -3.180159 14.282899 -0.826596 6.952499 -2e-06 -12.690613 -2e-06 16.144073 -17.702293 2.818438 1.665669 -1.955923 -2.878299 4.727801 -4.17059 4.993924 11.020535 3e-06 -4e-06 12.10906 -3.735719 -2.866786 1e-06 0.0 -1e-06 1.291987 -1.928549 -1.49809 14.800136 0.567468 3.865605 14.242583 -1.341738 -6.660664 19.631979 0.143929 -0.648248 50.298141 -0.665735 -5.947196 0.35303 -1.511153 -0.031941 20.222803 3.684311 2.316628 18.787287 6e-06 -6e-06 10.751637 -0.479868 1.397905 -1e-06 0.0 0.0 3.273809 0.305947 -0.580111 21.486824 11.830383 2.266131 8.16293 3e-06 -3e-06 18.399094 -3.798985 -4.940582 3e-06 -0.0 -3e-06 3.573238 -3.664801 -3.621805 -0.038794 -0.297257 9.653534 -11.615543 -9.586526 -1.946127 1.618583 -2.045045 2.549777 0.0 -0.0 2e-06 -6.320205 -24.12047 7.847423 0.009629 -0.066866 6.406117 -0.091579 -19.95912 -7.848892 -1.454184 0.995446 3.666619 -0.0 -0.0 -1e-06 
0.0 0.0 0.0 0.0 -0.0 0.0 -0.810049 99.606247 1.136604 1.791738 32.489399 -2.415961 1.328197 0.5649 -3.515294 0.187927 2.957943 -6.600675 -0.380482 2.416814 16.420624 -13.067285 9.979726 6.550116 6.903316 23.897972 -1.199708 -5.866098 34.377457 -6.772161 7.7e-05 -2.3e-05 6e-06 0.028954 -0.484706 -0.07663 0.743881 -4.169765 -10.311899 -0.693534 3.22588 -10.316644 -24.669615 -1.226895 13.186557 -52.197292 -4.743422 18.456999 0.300783 -32.712814 -0.153723 1.747288 4.978911 -32.712662 -5.882108 9.861293 0.702592 -10.936877 -0.360576 7.156209 0.0 8.774831 1e-06 -15.773357 18.094084 6.315141 -1.844033 2.498505 -2.507279 -10.163607 4.678948 4.621113 -20.976038 -4e-06 3e-06 -21.226301 2.451696 -3.594002 0.0 -5e-06 0.0 -1.362682 2.240799 -0.746323 -21.334927 0.584908 3.008325 -13.82122 -1e-06 3e-06 -23.887184 -0.249082 -0.839481 -60.39183 2.320354 -1.089794 -0.294025 1.679688 0.833257 -14.218216 0.093213 1.300581 -34.212067 -0.287566 0.967173 -20.033222 0.964538 1.212845 0.0 1e-06 -1e-06 -3.44039 0.788233 0.501655 -15.928196 -3.167313 2.999707 -6.33883 -3e-06 0.0 -18.123459 3.648183 -4.905673 -2e-06 -0.0 -1e-06 13.386812 13.340458 18.241806 62.523148 8.350522 29.760555 -0.720467 35.108162 -0.50539 -4.142177 -2.961449 -24.536846 2.243543 -5.255038 -3.180158 14.282898 -0.826595 6.952505 -2e-06 -12.69061 2e-06 16.15217 -17.678062 2.775306 1.665668 -1.955923 -2.878298 4.727801 -4.17059 4.993924 11.020535 4e-06 -2e-06 12.109059 -3.735717 -2.866786 1e-06 0.0 0.0 1.291986 -1.92855 -1.498089 14.800136 0.567466 3.865608 14.24258 -1.341738 -6.660661 19.631977 0.143927 -0.648245 50.26038 -0.655875 -5.951446 0.353029 -1.511153 -0.031941 20.222803 3.684311 2.31663 18.787287 5e-06 -3e-06 10.751634 -0.479868 1.397907 0.0 0.0 -2e-06 3.273809 0.305946 -0.58011 21.486824 11.830381 2.266135 8.162933 -0.0 -3e-06 18.399097 -3.798988 -4.940581 3e-06 1e-06 -3e-06 3.668926 -3.454966 -3.557702 -0.044432 -0.320028 9.638365 -11.611343 -9.457993 -1.970683 1.623037 -2.019835 2.575413 0.0 -0.0 2e-06 -6.19736 -23.886095 7.786976 0.009747 -0.072382 6.362078 -0.192916 -19.920963 -7.748988 -1.455172 0.993119 3.705921 -0.0 -0.0 -1e-06 
0.0 0.0 0.0 0.0 -0.0 0.0 -0.835418 99.61554 1.089683 1.706274 32.113815 -2.495511 1.316969 0.561567 -3.499197 0.178627 2.923915 -6.584697 -0.393033 2.364905 16.450428 -12.78996 9.904167 6.73231 6.765561 23.475866 -1.293696 -5.756169 33.55751 -6.676207 7.7e-05 -2.3e-05 6e-06 0.028209 -0.445471 -0.072357 0.741275 -4.132886 -10.287417 -0.692457 3.267598 -10.291529 -24.676586 -1.245739 13.253397 -52.041416 -4.761511 18.865253 0.397938 -32.657001 -0.211311 1.870773 4.896374 -32.516239 -5.882109 9.86129 0.70259 -10.936877 -0.360577 7.156206 1e-06 8.77483 -2e-06 -15.724632 18.072359 6.328314 -1.844034 2.498506 -2.507278 -10.163604 4.678946 4.621108 -20.976036 -6e-06 1e-06 -21.226299 2.451695 -3.594002 0.0 -5e-06 2e-06 -1.362682 2.240799 -0.746324 -21.334929 0.584906 3.008325 -13.821223 -6e-06 2e-06 -23.887184 -0.249082 -0.839482 -60.336342 2.341789 -1.095492 -0.294025 1.679687 0.833257 -14.218217 0.093213 1.300579 -34.212074 -0.287569 0.967168 -20.033228 0.964535 1.212844 -0.0 2e-06 -1e-06 -3.440391 0.788233 0.501658 -15.928201 -3.167311 2.999707 -6.338832 -2e-06 0.0 -18.123459 3.64818 -4.905674 -3e-06 -0.0 -3e-06 13.502872 13.295124 18.305618 62.316277 8.30354 29.727562 -0.670971 35.285732 -0.467931 -4.254896 -2.910979 -24.366243 2.243542 -5.255037 -3.180161 14.282898 -0.826593 6.952507 -4e-06 -12.690611 2e-06 16.140005 -17.672945 2.759701 1.665667 -1.955922 -2.878301 4.7278 -4.170588 4.993926 11.020531 4e-06 -2e-06 12.109058 -3.735716 -2.866784 1e-06 -0.0 -1e-06 1.291986 -1.92855 -1.498089 14.800138 0.567472 3.865608 14.242579 -1.341734 -6.660659 19.631975 0.143929 -0.648243 50.230556 -0.654205 -5.94145 0.353028 -1.511151 -0.03194 20.222803 3.684315 2.316631 18.787287 9e-06 -0.0 10.751634 -0.479866 1.397907 -0.0 2e-06 -2e-06 3.273809 0.305947 -0.580111 21.486832 11.830385 2.266135 8.16293 4e-06 0.0 18.399092 -3.798982 -4.940576 3e-06 0.0 -1e-06 3.766706 -3.248148 -3.472371 -0.049659 -0.335913 9.61847 -11.584569 -9.261032 -2.023639 1.62708 -2.00449 2.571023 -0.0 -1e-06 2e-06 -6.077631 -23.635626 7.738505 0.010115 -0.073916 6.293208 -0.254159 -19.842514 -7.656178 -1.458812 0.985715 3.735166 -0.0 -0.0 -1e-06 
